<?xml version="1.0" encoding="iso-8859-1"?>
<!-- Generator: Adobe Illustrator 16.0.0, SVG Export Plug-In . SVG Version: 6.00 Build 0)  -->
<!DOCTYPE svg PUBLIC "-//W3C//DTD SVG 1.1//EN" "http://www.w3.org/Graphics/SVG/1.1/DTD/svg11.dtd">
<svg version="1.1" id="Capa_1" xmlns="http://www.w3.org/2000/svg" xmlns:xlink="http://www.w3.org/1999/xlink" x="0px" y="0px"
	 width="478.322px" height="478.322px" viewBox="0 0 478.322 478.322" style="enable-background:new 0 0 478.322 478.322;"
	 xml:space="preserve">
<g>
	<path d="M4.316,208.388c14.091,17.905,28.223-11.943,41.328-25.264c0.352,0.984,0.729,1.964,1.14,2.937
		c-10.445,12.858-14.747,28.811-11.864,44.756c2.879,15.922,12.611,29.865,27.077,39.117c-0.771,15.854,5.44,31.238,17.608,43.078
		c5.855,5.694,12.864,10.254,20.558,13.521v90.993c0,8.284,6.716,15,15,15s15-6.716,15-15v-79.948
		c8.987,10.976,21.919,18.937,36.953,22.463c5.588,1.313,11.329,1.978,17.062,1.978c11.992,0,23.581-2.83,33.855-8.227
		c9.533,4.424,20.09,6.742,30.864,6.742c6.887,0,13.732-0.955,20.347-2.838c6.533-1.859,12.604-4.564,18.068-7.979v67.809
		c0,8.284,6.717,15,15,15c8.284,0,15-6.716,15-15v-90.68c14.235-2.914,27.1-9.91,36.59-20.179
		c4.384-4.743,7.852-9.966,10.379-15.487c13.213,9.107,28.215,14.24,43.101,14.24c10.93,0,21.154-2.676,30.393-7.953
		c17.406-9.945,25.939-29.271,24.024-54.418c-0.597-7.843-2.178-16.165-4.644-24.662c6.552-2.833,12.394-7.777,16.3-14.114
		c4.992-8.1,6.191-17.329,3.376-25.987c-2.725-8.379-8.921-15.641-18.417-21.584c-9.871-6.178-21.646-9.311-35.003-9.311
		c-3.894,0-7.849,0.267-11.822,0.795c-8.166-4.978-16.915-7.494-26.098-7.494l0,0c-2.225,0-4.472,0.16-6.736,0.463
		c-1.101-2.925-2.454-5.798-4.079-8.592c-8.298-14.266-22.459-24.783-39.457-29.511c-4.717-15.28-15.924-28.213-31.539-36.11
		c-10.045-5.08-21.432-7.766-32.932-7.766c-4.463,0-8.914,0.397-13.288,1.185c-12.161-9.428-27.515-14.566-43.798-14.566
		c-17.94,0-34.892,6.342-47.415,17.574c-4.837-0.971-9.776-1.461-14.75-1.461c-12.73,0-25.15,3.238-35.917,9.364
		c-15.141,8.612-25.582,22.045-29.406,37.525c-16.693,5.522-30.206,16.694-37.651,31.342c-3.246,6.389-5.181,13.098-5.818,19.862
		C22.548,168.666-12.188,187.417,4.316,208.388z M337.748,281.037c-8.779,0-15.896-6.101-15.896-21.522
		c0-16.938,10.782-31.062,17.335-38.082c-3.419-24.066,4.945-46.754,23.439-57.319c8.104-4.629,15.693-6.949,22.865-6.949
		c7.87,0,15.237,2.794,22.222,8.397c3.919-0.835,9.477-1.698,15.699-1.698c8.34,0,17.875,1.551,26.264,6.801
		c13,8.137,14.391,17.449,9.757,24.965c-2.81,4.559-8.591,8.953-14.756,8.953c-3.999,0-8.16-1.849-11.774-6.701
		c-0.738-0.99-1.466-1.943-2.188-2.875c-0.159,0.196-0.324,0.387-0.494,0.574c16.799,32.302,24.139,73.439-0.615,87.582
		c-6.871,3.925-14.448,5.783-22.221,5.783c-18.726,0-38.573-10.791-52.381-29.446c-0.428,0.056-0.87,0.091-1.321,0.114
		C359.127,273.919,346.507,281.037,337.748,281.037z M65.75,194.919l5.623-5.454l-3.949-6.765
		c-6.146-10.53-6.536-22.74-1.069-33.499c5.698-11.211,16.923-19.498,30.796-22.735l6.834-1.595l0.824-6.969
		c1.41-11.919,8.941-22.578,20.662-29.246c7.759-4.414,16.759-6.748,26.028-6.748c5.119,0,10.182,0.706,15.048,2.098l5.927,1.695
		l4.177-4.533c9.003-9.77,22.493-15.373,37.012-15.373c13.154,0,25.364,4.531,34.38,12.759l3.98,3.633l5.223-1.327
		c4.396-1.116,8.938-1.683,13.503-1.683c8.379,0,16.646,1.94,23.905,5.613c12.156,6.147,20.35,16.491,22.479,28.377l1.221,6.812
		l6.805,1.259c14.095,2.605,25.843,10.399,32.229,21.382c0.854,1.466,1.584,2.966,2.209,4.49c-1.709,0.824-3.424,1.719-5.143,2.701
		c-12.211,6.976-21.573,17.977-27.074,31.814c-4.177,10.507-5.966,22.279-5.271,34.424c-7.734,9.771-16.731,25.088-16.731,43.463
		c0,11.228,2.852,20.342,8.474,27.09c5.214,6.258,12.511,10.007,20.782,10.758c-8.69,7.054-20.184,11.021-32.478,11.021
		l-6.556-0.009l-2.622,6.009c-4.991,11.438-15.637,20.215-29.208,24.077c-4.834,1.375-9.837,2.073-14.873,2.073
		c-9.319,0-18.375-2.357-26.189-6.816l-5.247-2.994l-5.091,3.252c-8.125,5.188-18.137,8.043-28.192,8.043
		c-4.196,0-8.398-0.486-12.491-1.447c-13.832-3.246-25.03-11.559-30.722-22.803l-2.924-5.776l-6.468,0.305
		c-0.866,0.04-1.746,0.062-2.614,0.062c-13.565,0-26.47-4.986-35.406-13.681c-9.15-8.902-13.177-20.699-11.048-32.365l1.343-7.357
		l-6.68-3.367c-12.198-6.147-20.424-16.474-22.567-28.328C52.497,215.619,56.561,203.832,65.75,194.919z"/>
</g>
<g>
</g>
<g>
</g>
<g>
</g>
<g>
</g>
<g>
</g>
<g>
</g>
<g>
</g>
<g>
</g>
<g>
</g>
<g>
</g>
<g>
</g>
<g>
</g>
<g>
</g>
<g>
</g>
<g>
</g>
</svg>
